HIERARCHY
ROOT Hips
{
	OFFSET 0.00000 0.00000 0.00000
	CHANNELS 6 Xposition Yposition Zposition Zrotation Yrotation Xrotation 
	JOINT LHipJoint
	{
		OFFSET 0 0 0
		CHANNELS 3 Zrotation Yrotation Xrotation
		JOINT LeftUpLeg
		{
			OFFSET 1.52977 -1.71332 0.88991
			CHANNELS 3 Zrotation Yrotation Xrotation
			JOINT LeftLeg
			{
				OFFSET 2.23949 -6.15296 0.00000
				CHANNELS 3 Zrotation Yrotation Xrotation
				JOINT LeftFoot
				{
					OFFSET 2.68396 -7.37412 0.00000
					CHANNELS 3 Zrotation Yrotation Xrotation
					JOINT LeftToeBase
					{
						OFFSET 0.20538 -0.56428 2.52710
						CHANNELS 3 Zrotation Yrotation Xrotation
						End Site
						{
							OFFSET 0.00000 -0.00000 1.29919
						}
					}
				}
			}
		}
	}
	JOINT RHipJoint
	{
		OFFSET 0 0 0
		CHANNELS 3 Zrotation Yrotation Xrotation
		JOINT RightUpLeg
		{
			OFFSET -1.45689 -1.71333 0.88991
			CHANNELS 3 Zrotation Yrotation Xrotation
			JOINT RightLeg
			{
				OFFSET -2.36700 -6.50329 0.00000
				CHANNELS 3 Zrotation Yrotation Xrotation
				JOINT RightFoot
				{
					OFFSET -2.69814 -7.41308 0.00000
					CHANNELS 3 Zrotation Yrotation Xrotation
					JOINT RightToeBase
					{
						OFFSET -0.18734 -0.51471 2.37479
						CHANNELS 3 Zrotation Yrotation Xrotation
						End Site
						{
							OFFSET -0.00000 -0.00000 1.22113
						}
					}
				}
			}
		}
	}
	JOINT LowerBack
	{
		OFFSET 0 0 0
		CHANNELS 3 Zrotation Yrotation Xrotation
		JOINT Spine
		{
			OFFSET 0.04294 2.14638 -0.31163
			CHANNELS 3 Zrotation Yrotation Xrotation
			JOINT Spine1
			{
				OFFSET -0.00400 2.17216 0.01486
				CHANNELS 3 Zrotation Yrotation Xrotation
				JOINT Neck
				{
					OFFSET 0 0 0
					CHANNELS 3 Zrotation Yrotation Xrotation
					JOINT Neck1
					{
						OFFSET 0.03869 1.76598 0.14916
						CHANNELS 3 Zrotation Yrotation Xrotation
						JOINT Head
						{
							OFFSET -0.00760 1.75513 -0.18948
							CHANNELS 3 Zrotation Yrotation Xrotation
							End Site
							{
								OFFSET -0.00601 1.82444 -0.08310
							}
						}
					}
				}
				JOINT LeftShoulder
				{
					OFFSET 0 0 0
					CHANNELS 3 Zrotation Yrotation Xrotation
					JOINT LeftArm
					{
						OFFSET 3.73696 0.92058 0.01733
						CHANNELS 3 Zrotation Yrotation Xrotation
						JOINT LeftForeArm
						{
							OFFSET 5.22771 -0.00000 0.00000
							CHANNELS 3 Zrotation Yrotation Xrotation
							JOINT LeftHand
							{
								OFFSET 3.45251 -0.00000 0.00000
								CHANNELS 3 Zrotation Yrotation Xrotation
								JOINT LeftFingerBase
								{
									OFFSET 0 0 0
									CHANNELS 3 Zrotation Yrotation Xrotation
									JOINT LeftHandIndex1
									{
										OFFSET 0.55212 -0.00000 0.00000
										CHANNELS 3 Zrotation Yrotation Xrotation
										End Site
										{
											OFFSET 0.44513 -0.00000 0.00000
										}
									}
								}
								JOINT LThumb
								{
									OFFSET 0 0 0
									CHANNELS 3 Zrotation Yrotation Xrotation
									End Site
									{
										OFFSET 0.45193 -0.00000 0.45193
									}
								}
							}
						}
					}
				}
				JOINT RightShoulder
				{
					OFFSET 0 0 0
					CHANNELS 3 Zrotation Yrotation Xrotation
					JOINT RightArm
					{
						OFFSET -3.63819 0.83094 -0.13694
						CHANNELS 3 Zrotation Yrotation Xrotation
						JOINT RightForeArm
						{
							OFFSET -5.23980 -0.00000 -0.00000
							CHANNELS 3 Zrotation Yrotation Xrotation
							JOINT RightHand
							{
								OFFSET -3.48042 -0.00000 -0.00000
								CHANNELS 3 Zrotation Yrotation Xrotation
								JOINT RightFingerBase
								{
									OFFSET 0 0 0
									CHANNELS 3 Zrotation Yrotation Xrotation
									JOINT RightHandIndex1
									{
										OFFSET -0.61871 -0.00000 0.00000
										CHANNELS 3 Zrotation Yrotation Xrotation
										End Site
										{
											OFFSET -0.49882 -0.00000 0.00000
										}
									}
								}
								JOINT RThumb
								{
									OFFSET 0 0 0
									CHANNELS 3 Zrotation Yrotation Xrotation
									End Site
									{
										OFFSET -0.50644 -0.00000 0.50644
									}
								}
							}
						}
					}
				}
			}
		}
	}
}
MOTION
Frames: 13
Frame Time: 0.0606061
0.00 0.00 0.00 0 0 0 0 0 0 -21 0 0 0 0 0 0 0 0 0 0 0 0 0 0 21 0 0 0 0 0 0 0 0 0 0 0 0 0 0 0 0 0 0 0 0 0 0 -16 0 0 21 0 0 11 0 0 0 -8 0 0 0 0 0 0 0 0 0 0 0 0 0 0 0 0 0 0 0 0 8 0 0 0 0 0 0 0 0 0 0 0 0 0 0 0 0 0
0.00 0.00 0.00 -6.7012 -58.9269 10.9910 0.0000 0.0000 0.0000 -20.4616 7.8197 -2.7010 1.2558 7.1042 20.0243 2.4092 -2.9083 -28.6394 0.0936 -1.9730 -5.4309 0.0000 0.0000 0.0000 25.8560 14.1189 -10.5734 -6.2343 -14.6516 45.9150 -3.1490 -5.9875 -35.9946 -0.3000 3.5219 -9.7354 2.0955 -0.7222 -0.0700 0.2393 -0.9851 1.1720 -0.9397 -0.4738 1.2086 2.2708 -0.6930 -5.8780 1.0506 -1.2772 8.5776 -0.1193 -0.5224 3.8289 0.0000 0.0000 0.0000 -90.7720 -0.3476 20.8481 10.8429 -18.0471 -1.7269 -0.0000 0.0000 -14.5640 19.4660 13.1280 4.5898 -7.1250 0.0000 -0.0000 -7.2097 43.7558 0.2226 0.0000 0.0000 0.0000 91.6589 0.0416 18.3184 -13.1056 21.4418 -2.4918 0.0000 0.0000 6.1902 -18.8983 -8.0128 2.7321 7.1250 -0.0000 -0.0000 6.8389 -38.3594 1.1247
0.00 0.00 0.00 -2.0608 -61.8749 8.4769 0.0000 0.0000 0.0000 -23.3510 15.7049 -2.1168 0.7224 5.4310 15.1422 2.2868 -7.1371 -27.2635 0.1465 -2.4666 -6.7969 0.0000 0.0000 0.0000 21.9004 21.1386 -21.5322 -11.2195 -18.0408 63.4923 -2.0394 -5.3640 -29.3223 -0.8448 5.8627 -16.3864 -1.2517 -0.6515 0.1054 -0.6072 -0.8655 0.6153 0.0765 -0.4385 0.5797 2.9633 -0.0093 -5.4233 0.7325 -0.3566 7.5425 -0.2965 -0.0717 3.3839 0.0000 0.0000 0.0000 -90.3402 -1.5249 14.3531 8.5674 -14.4683 -1.0895 -0.0000 0.0000 -9.7235 19.3344 13.2649 4.6028 -7.1250 0.0000 -0.0000 -7.3565 43.8837 0.2038 0.0000 0.0000 0.0000 92.1719 0.7733 17.2667 -12.5667 20.6491 -2.2982 0.0000 0.0000 7.5391 -18.8385 -7.5855 2.5787 7.1250 -0.0000 -0.0000 6.8306 -37.9084 1.1993
0.00 0.00 0.00 -6.2777 -59.9946 12.7636 0.0000 0.0000 0.0000 -21.6345 13.4542 7.6842 0.9584 6.2337 17.4639 0.5484 0.9243 -14.3541 1.7635 -8.3551 -23.7978 0.0000 0.0000 0.0000 26.1423 26.0957 -17.0971 -6.0579 -14.4842 45.2137 -3.3406 2.8536 -33.9563 -0.6009 4.9621 -13.8006 2.0970 -1.9980 0.8577 0.2412 -2.6441 0.1251 -0.8924 -1.3255 -0.4357 3.0291 0.2660 -2.8657 0.4112 0.1451 6.1326 -0.3841 0.1429 2.4295 -0.0000 -0.0000 0.0000 -91.2272 -3.4850 -4.3796 4.7986 -8.2444 -0.3460 -0.0000 -0.0000 8.0241 19.2229 9.9466 3.4467 -7.1250 0.0000 -0.0000 -6.8503 40.4080 0.7798 -0.0000 -0.0000 0.0000 90.4647 0.0467 5.1475 -8.4990 14.3584 -1.0725 0.0000 0.0000 22.7811 -15.7349 -6.6899 1.8799 7.1250 -0.0000 -0.0000 9.3136 -36.7866 1.9019
0.00 0.00 0.00 -7.3894 -57.2038 13.3008 0.0000 0.0000 0.0000 -18.9033 11.2820 -3.1972 4.4770 12.7695 38.5115 0.0560 1.8064 -5.5183 1.5881 -7.9496 -22.5610 0.0000 0.0000 0.0000 29.1261 24.1156 -9.6938 -4.4580 -12.7461 38.4253 -3.4545 1.7424 -34.8155 -0.2006 2.8842 -7.9565 3.5220 -2.1874 1.0269 0.5075 -2.8821 0.3449 -1.4083 -1.4437 -0.3688 2.5027 -0.2805 -2.9028 0.8342 -0.5768 5.8039 -0.1800 -0.2187 2.3175 0.0000 -0.0000 0.0000 -91.0597 -3.3098 -3.2486 4.8639 -8.3548 -0.3555 -0.0000 -0.0000 7.4539 18.4445 10.2518 3.3970 -7.1250 0.0000 -0.0000 -7.5799 40.6587 0.8168 0.0000 -0.0000 0.0000 90.4868 0.0475 3.5961 -8.0232 13.5904 -0.9576 0.0000 0.0000 24.0028 -14.6832 -6.9922 1.8270 7.1250 -0.0000 -0.0000 10.2401 -37.0316 2.0336
0.00 0.00 0.00 -11.1644 -54.1301 15.8830 0.0000 0.0000 0.0000 -13.7449 7.1696 -15.2051 10.1819 17.5109 60.0946 0.1112 3.5110 6.0473 0.3964 -4.0424 -11.1959 0.0000 0.0000 0.0000 32.6944 19.1641 -4.1520 -2.9557 -10.6229 31.0185 -3.1022 0.7013 -33.2167 -0.0453 1.3737 -3.7776 6.6954 -2.1553 2.1800 1.1930 -2.7278 0.5699 -2.4318 -1.3818 -0.8878 1.8758 -1.0760 -2.7376 1.5723 -1.6157 4.6187 0.1352 -0.7423 1.9006 0.0000 0.0000 0.0000 -90.9597 -3.4822 -1.4083 4.9519 -8.5032 -0.3684 -0.0000 -0.0000 5.1450 20.0218 10.9791 3.9700 -7.1250 0.0000 -0.0000 -6.3182 41.5631 0.5380 0.0000 0.0000 0.0000 90.4865 0.3348 2.5289 -7.6226 12.9393 -0.8657 0.0000 0.0000 26.4636 -13.6831 -7.1666 1.7397 7.1250 -0.0000 -0.0000 11.1049 -37.1463 2.1787
0.00 0.00 0.00 -15.0966 -47.9719 18.1146 0.0000 0.0000 0.0000 -5.1964 -1.4936 -37.7881 17.2144 19.8129 81.8311 0.1405 -3.3029 -6.7050 0.1932 -2.8309 -7.8082 0.0000 0.0000 0.0000 36.2470 4.0902 5.7857 -0.6556 -5.1788 14.4194 -1.8233 2.9585 -24.7718 -0.1392 -2.4046 6.6251 10.4184 -2.1431 4.9397 2.3912 -2.2612 0.4724 -3.1714 -1.2419 -2.5888 0.6972 -2.9391 -2.2885 2.8781 -4.0643 3.2918 0.6956 -1.9734 1.4504 0.0000 -0.0000 0.0000 -91.0161 -2.0003 0.0393 5.5245 -9.4668 -0.4578 -0.0000 0.0000 -2.8574 23.4605 12.0185 5.1637 -7.1250 0.0000 -0.0000 -3.4078 43.0200 0.1667 0.0000 -0.0000 0.0000 90.7642 2.0905 -0.9496 -6.6478 11.3382 -0.6607 0.0000 0.0000 32.8471 -15.7946 -6.2638 1.7677 7.1250 -0.0000 -0.0000 9.1996 -36.3539 1.9765
0.00 0.00 0.00 -12.0371 -46.0297 16.5910 0.0000 0.0000 0.0000 -6.9322 -8.4925 -41.4704 12.0803 18.4244 66.2430 0.9149 -7.4260 -17.1035 0.8511 -5.8837 -16.4474 0.0000 0.0000 0.0000 35.4099 0.9988 10.6311 -0.3303 -3.6940 10.2172 -1.5268 0.8311 -23.1219 -0.0431 -1.3392 3.6827 8.8639 -1.8592 5.2214 1.8424 -1.8967 -0.1107 -2.8940 -1.0824 -3.2778 -0.0514 -3.9389 -2.0376 3.6494 -5.3816 2.7892 1.0426 -2.6359 1.3130 0.0000 -0.0000 0.0000 -90.3607 -0.0431 0.9937 5.6626 -9.6982 -0.4808 -0.0000 0.0000 -4.0715 19.8970 13.0503 4.6723 -7.1250 0.0000 -0.0000 -6.8047 43.7228 0.2156 0.0000 -0.0000 0.0000 91.3582 2.1432 3.2003 -6.9932 11.9080 -0.7302 0.0000 0.0000 28.5565 -15.4505 -6.2728 1.7298 7.1250 -0.0000 -0.0000 9.4870 -36.3438 2.0420
0.00 0.00 0.00 -6.7555 -47.5263 12.2444 0.0000 0.0000 0.0000 -12.7782 -10.1020 -32.5168 6.1783 14.5990 45.6933 1.5196 -8.7709 -22.0789 1.1089 -6.6905 -18.8015 0.0000 0.0000 0.0000 33.1299 2.9670 8.8002 -1.7476 -8.3193 23.6882 -1.4066 -2.5893 -23.4680 -0.1144 2.1803 -6.0041 4.6557 -1.4566 5.8038 0.5971 -1.6066 -0.1561 -1.8522 -0.8785 -3.5301 -0.0375 -4.1165 -1.3631 3.6866 -5.6113 2.7111 1.0618 -2.7586 1.1779 -0.0000 0.0000 0.0000 -89.9481 1.5891 -0.2646 5.4823 -9.3961 -0.4509 -0.0000 0.0000 -3.9797 18.9149 13.6844 4.6346 -7.1250 0.0000 -0.0000 -7.8249 44.2721 0.1415 -0.0000 0.0000 0.0000 91.8481 2.5606 5.1132 -7.2469 12.3249 -0.7835 0.0000 0.0000 26.9023 -14.9434 -6.4777 1.7246 7.1250 -0.0000 -0.0000 9.9402 -36.5240 2.0975
0.00 0.00 0.00 -5.7302 -49.8396 10.4759 0.0000 0.0000 0.0000 -15.5312 -8.6695 -23.4616 4.4330 12.7154 38.3121 1.9658 -8.0719 -25.1632 0.7059 -5.3701 -14.9673 0.0000 0.0000 0.0000 31.7540 4.8228 2.9967 -4.9265 -13.3006 40.5043 -0.3293 -6.7867 -15.4099 -0.1673 2.6351 -7.2645 3.4770 -1.3491 5.6802 0.1822 -1.5691 0.1581 -1.6319 -0.8321 -3.1110 0.5366 -3.6214 -1.1002 3.1253 -4.9686 3.4584 0.8010 -2.4324 1.3211 0.0000 -0.0000 0.0000 -90.0489 2.3279 -2.2954 5.0984 -8.7504 -0.3903 -0.0000 0.0000 -3.1973 19.0543 13.5187 4.6160 -7.1250 0.0000 -0.0000 -7.6631 44.1160 0.1682 0.0000 -0.0000 0.0000 91.8424 2.9218 6.2504 -7.3571 12.5055 -0.8072 0.0000 0.0000 25.8160 -15.1676 -6.3499 1.7173 7.1250 -0.0000 -0.0000 9.7338 -36.4066 2.0812
0.00 0.00 0.00 -4.8914 -51.6453 8.8265 0.0000 0.0000 0.0000 -17.3457 -6.9454 -17.4675 3.7696 11.8474 35.1942 2.1608 -6.6952 -26.5034 0.3822 -3.9705 -10.9937 0.0000 0.0000 0.0000 30.3734 8.0523 -3.7171 -9.0469 -16.8378 56.2523 0.4847 -12.2274 -4.7282 -0.0100 0.6460 -1.7751 2.6865 -1.4841 6.0013 -0.1760 -1.8080 0.5273 -1.5354 -0.9363 -2.9092 1.0391 -3.0424 -1.2921 2.8621 -4.2188 3.9173 0.6418 -2.0486 1.4696 -0.0000 0.0000 0.0000 -89.9412 2.0626 -4.0306 4.5932 -7.8967 -0.3172 -0.0000 0.0000 -1.8968 17.7601 13.6614 4.3261 -7.1250 0.0000 -0.0000 -8.8654 44.1164 0.1949 -0.0000 0.0000 0.0000 91.9145 3.2092 6.5106 -7.3682 12.5237 -0.8096 0.0000 0.0000 25.1000 -15.3582 -6.3409 1.7375 7.1250 -0.0000 -0.0000 9.5739 -36.4081 2.0459
0.00 0.00 0.00 2.0873 -53.9558 2.0415 0.0000 0.0000 0.0000 -22.6825 -1.4514 -10.0572 2.4819 9.8049 28.3474 1.8692 -5.7599 -24.6577 0.1290 -2.3153 -6.3780 0.0000 0.0000 0.0000 24.8217 13.4538 -14.8199 -15.1448 -19.4252 75.6724 0.4454 -12.2503 -0.7374 -0.0022 -0.3051 0.8384 -2.4460 -1.5443 7.0755 -1.5424 -2.3127 0.9095 0.0013 -1.1378 -2.9932 1.5794 -2.3038 -0.9877 2.9077 -3.2127 3.0473 0.5904 -1.5555 1.1228 0.0000 0.0000 0.0000 -89.2933 1.1070 -6.2650 4.1599 -7.1612 -0.2604 -0.0000 -0.0000 0.9425 16.5611 13.6273 4.0077 -7.1250 0.0000 -0.0000 -9.9382 43.9466 0.2611 0.0000 0.0000 0.0000 92.2679 2.7735 7.4328 -7.6125 12.9228 -0.8634 0.0000 0.0000 23.4643 -15.1326 -6.2563 1.6880 7.1250 -0.0000 -0.0000 9.7485 -36.3092 2.1079
0.00 0.00 0.00 8.5887 -57.6208 -3.9117 0.0000 0.0000 0.0000 -26.6823 8.5822 1.6376 0.6204 5.0408 14.0249 1.3437 -5.7057 -20.7806 0.0409 -1.3047 -3.5877 0.0000 0.0000 0.0000 18.2295 21.1492 -31.2514 -18.2380 -19.9254 84.8422 0.4761 -14.5738 -14.0381 -0.0010 -0.2037 0.5597 -5.9100 -1.5596 7.3252 -2.7160 -2.6862 0.8700 0.7632 -1.2970 -3.0688 1.9455 -1.2990 -0.8763 2.3427 -1.8499 2.7816 0.3748 -0.8829 0.9993 -0.0000 -0.0000 0.0000 -88.8963 -0.5548 -9.7882 3.6561 -6.3027 -0.2014 -0.0000 -0.0000 4.9147 21.0913 12.3525 4.7168 -7.1250 0.0000 -0.0000 -5.5981 43.1198 0.2606 -0.0000 -0.0000 0.0000 92.2576 1.7185 6.0512 -7.4513 12.6595 -0.8277 0.0000 0.0000 25.1781 -13.8045 -6.3105 1.5470 7.1250 -0.0000 -0.0000 10.8582 -36.2898 2.3599
